# xmcd CD database file
#
# Track frame offsets:
#	222
#	17432
#	45345
#	74977
#	104345
#	114480
#	155035
#	178355
#	201820
#	232627
#	259400
#	279575
#
# Disc length: 4312 seconds
#
# Revision: 2
# Processed by: cddbd v1.4PL0 Copyright (c) Steve Scherf et al.
# Submitted via: CDex 1.50Beta7
#
DISCID=aa10d60c
DTITLE=Katie Webster - I Know That's Right
DYEAR=1987
DGENRE=Blues
TTITLE0=I Know That's Right
TTITLE1=Jimmy Jimmy
TTITLE2=Don't Accuse Me
TTITLE3=I Want You To Love Me
TTITLE4=Katie's Boogie Woogie
TTITLE5=Million Dollar Secret/Shake Rattle And Roll
TTITLE6=When Something Is Wrong With My Baby
TTITLE7=Voodoo Blues
TTITLE8=Bo Jenkins
TTITLE9=Jesus Loves Me/Only A Look
TTITLE10=Snatch It And Grab It
TTITLE11=Misty Blue
EXTD=YEAR: 1987
EXTT0=
EXTT1=
EXTT2=
EXTT3=
EXTT4=
EXTT5=
EXTT6=
EXTT7=
EXTT8=
EXTT9=
EXTT10=
EXTT11=
PLAYORDER=
